<svg id="Capa_1" enable-background="new 0 0 512 512" height="512" viewBox="0 0 512 512" width="512" xmlns="http://www.w3.org/2000/svg"><g><g><g><path d="m271.018 467.621h-106.627l11.703-116.874h25.278v47.657c0 9.02 7.312 16.332 16.332 16.332 9.02 0 16.332-7.312 16.332-16.332v-47.657h25.278z" fill="#90bac4"/><path d="m204.32 407.748c-1.853-2.649-2.948-5.866-2.948-9.344v-47.657h-25.278l-5.708 57.001z" fill="#7da2b0"/><path d="m265.023 407.748-5.708-57.001h-25.278v47.657c0 3.478-1.095 6.695-2.948 9.344z" fill="#7da2b0"/><path d="m293.444 490.959h-151.479c-8.028 0-14.536-6.508-14.536-14.536 0-8.028 6.508-14.536 14.536-14.536h151.479c8.028 0 14.536 6.508 14.536 14.536 0 8.028-6.508 14.536-14.536 14.536z" fill="#eef4f5"/><path d="m307.977 476.427c0 4.013-1.63 7.649-4.257 10.277-2.627 2.627-6.264 4.257-10.277 4.257h-27.493c4.013 0 7.649-1.63 10.277-4.257s4.257-6.264 4.257-10.277c0-8.026-6.507-14.545-14.534-14.545h27.493c8.026 0 14.534 6.519 14.534 14.545z" fill="#cbe5e7"/></g><path d="m435.406 109.323v237.725h-435.406v-237.725c0-12.249 9.931-22.18 22.17-22.18h391.067c12.248 0 22.169 9.931 22.169 22.18z" fill="#3351c5"/><path d="m435.406 331.11v15.937h-54.94l-27.259-27.259c-8.654 1.061-17.678-1.72-24.312-8.355l-11.991-11.991c-20.593 13.042-45.009 20.593-71.185 20.593-73.586 0-133.244-59.658-133.244-133.244 0-39.641 17.307-75.244 44.782-99.649h176.923c27.485 24.405 44.792 60.008 44.792 99.649 0 26.177-7.561 50.592-20.604 71.186l11.991 11.981c6.634 6.645 9.416 15.669 8.365 24.312l32.73 32.73 2.421-2.421c4.141-4.141 10.858-4.141 14.999 0z" fill="#213993"/><path d="m435.406 109.323v237.725h-39.106v-237.725c0-12.239-9.921-22.18-22.169-22.18h39.106c12.238 0 22.169 9.941 22.169 22.18z" fill="#2944ae"/><path d="m435.406 336.746v25.559c0 12.249-9.921 22.17-22.17 22.17h-391.066c-12.239 0-22.17-9.921-22.17-22.17v-25.559z" fill="#eef4f5"/><g fill="#cbe5e7"><path d="m435.406 336.746v25.559c0 12.249-9.921 22.17-22.17 22.17h-15.205l-14.526-14.526c-4.141-4.141-4.141-10.858 0-14.999l2.431-2.431-15.772-15.772h65.242z"/><path d="m435.409 336.745v25.564c0 12.239-9.933 22.172-22.172 22.172h-39.111c12.25 0 22.172-9.933 22.172-22.172v-25.564z"/></g></g><g><g><g><g><g><g><g><g><g><path d="m363.648 262.959h36.087v54.605h-36.087z" fill="#557983" transform="matrix(.707 -.707 .707 .707 -93.451 354.913)"/><path d="m397.955 281.014c-2.545 5.429-6.056 10.507-10.532 14.983-4.427 4.415-9.47 7.962-14.959 10.556l-22.837-22.837 25.515-25.515z" fill="#3f5959"/></g><path d="m502.603 411.173c-12.529 12.529-32.842 12.529-45.37 0l-73.728-73.728c-4.141-4.141-4.141-10.855 0-14.996l30.374-30.374c4.141-4.141 10.855-4.141 14.996 0l73.728 73.728c12.529 12.528 12.529 32.841 0 45.37z" fill="#fee265"/><path d="m502.608 411.169c-4.307 4.307-9.53 7.13-15.043 8.481 2.582-10.532-.253-22.113-8.469-30.34l-73.734-73.722c-4.138-4.138-10.857-4.138-14.995 0l23.512-23.512c4.138-4.138 10.857-4.138 14.995 0l73.734 73.722c12.523 12.534 12.523 32.849 0 45.371z" fill="#fdd330"/><g><path d="m370.361 278.931c-11.451 11.451-30.017 11.451-41.469 0l-20.734-20.734 41.468-41.469 20.734 20.734c11.452 11.452 11.452 30.018.001 41.469z" fill="#fee265"/><path d="m375.143 243.737c-10.809 15.598-24.369 29.158-39.967 39.967-2.256-1.267-4.367-2.859-6.285-4.777l-20.738-20.725 41.475-41.475 20.738 20.738c1.918 1.917 3.51 4.028 4.777 6.272z" fill="#fdd330"/></g><g><circle cx="245.72" cy="154.29" fill="#a9d3d8" r="133.249"/><path d="m378.967 154.296c0 73.589-59.655 133.244-133.244 133.244-7.443 0-14.754-.615-21.86-1.786 63.19-10.435 111.385-65.313 111.385-131.459 0-66.158-48.195-121.036-111.385-131.471 7.106-1.17 14.416-1.785 21.86-1.785 73.589.001 133.244 59.656 133.244 133.257z" fill="#90bac4"/><g><circle cx="244.924" cy="154.29" fill="#d9ecfd" r="93.985"/><path d="m338.903 154.296c0 51.898-42.078 93.977-93.977 93.977-6.9 0-13.632-.748-20.11-2.159 42.235-9.205 73.866-46.82 73.866-91.817 0-45.01-31.631-82.625-73.866-91.829 6.478-1.412 13.21-2.159 20.11-2.159 51.899-.002 93.977 42.076 93.977 93.987z" fill="#b5dbfd"/></g></g></g></g></g></g></g></g></g><g><g><g><g><circle cx="245.721" cy="203.335" fill="#fb6a3b" r="13.801"/></g></g></g><g><path d="m229.567 107.097 3.037 46.464c.452 6.912 6.19 12.288 13.117 12.288 6.927 0 12.666-5.376 13.117-12.288l3.037-46.464c.61-9.337-6.798-17.245-16.155-17.245-9.355 0-16.764 7.908-16.153 17.245z" fill="#fb6a3b"/></g></g></g><g><path d="m127.959 307.846h-90.476c-4.267 0-7.726-3.459-7.726-7.726s3.459-7.726 7.726-7.726h90.476c4.267 0 7.726 3.459 7.726 7.726s-3.459 7.726-7.726 7.726z" fill="#eef4f5"/></g><g><path d="m82.721 279.362h-45.238c-4.267 0-7.726-3.459-7.726-7.726s3.459-7.726 7.726-7.726h45.238c4.267 0 7.726 3.459 7.726 7.726.001 4.266-3.459 7.726-7.726 7.726z" fill="#eef4f5"/></g><g><path d="m37.483 236.25c-4.267 0-7.726-3.459-7.726-7.726v-107.422c0-4.267 3.459-7.726 7.726-7.726s7.726 3.459 7.726 7.726v107.422c.001 4.267-3.458 7.726-7.726 7.726z" fill="#eef4f5"/></g></g></svg>